<?xml version="1.0" encoding="utf-8"?>
<svg xmlns="http://www.w3.org/2000/svg" width="1256" height="1256" class="segno"><path transform="scale(8)" class="qrline" stroke="#000" d="M4 4.5h7m3 0h1m1 0h1m2 0h1m3 0h2m1 0h1m1 0h2m3 0h1m4 0h1m8 0h5m2 0h3m1 0h1m2 0h1m3 0h1m1 0h1m1 0h1m3 0h2m1 0h1m5 0h2m2 0h2m1 0h1m1 0h1m1 0h2m2 0h3m1 0h3m1 0h1m2 0h3m1 0h4m1 0h3m5 0h2m1 0h2m2 0h1m6 0h2m5 0h7m-149 1h1m5 0h1m1 0h4m1 0h5m2 0h1m2 0h1m1 0h1m1 0h3m1 0h1m2 0h2m1 0h1m1 0h1m2 0h2m2 0h1m2 0h1m1 0h1m1 0h2m2 0h2m1 0h3m1 0h1m2 0h1m2 0h1m4 0h1m3 0h3m2 0h4m3 0h2m5 0h1m4 0h2m1 0h2m2 0h1m2 0h1m2 0h1m1 0h1m1 0h2m3 0h3m2 0h1m1 0h1m1 0h1m2 0h1m1 0h2m1 0h1m5 0h1m-149 1h1m1 0h3m1 0h1m5 0h5m2 0h2m2 0h1m2 0h2m1 0h4m2 0h3m1 0h1m1 0h2m1 0h2m1 0h3m1 0h1m2 0h2m1 0h2m1 0h2m2 0h3m1 0h2m1 0h2m4 0h1m2 0h3m2 0h1m1 0h3m2 0h2m1 0h1m4 0h1m1 0h2m3 0h2m3 0h1m2 0h6m2 0h1m1 0h3m1 0h4m1 0h2m2 0h2m2 0h1m1 0h3m1 0h1m-149 1h1m1 0h3m1 0h1m2 0h5m3 0h1m2 0h5m1 0h1m3 0h4m1 0h2m5 0h1m1 0h1m3 0h3m1 0h1m1 0h1m5 0h1m1 0h2m2 0h5m1 0h1m1 0h5m4 0h3m1 0h1m2 0h2m4 0h2m1 0h3m3 0h2m1 0h2m1 0h5m1 0h1m1 0h1m1 0h4m2 0h3m1 0h1m3 0h2m1 0h2m2 0h1m1 0h3m1 0h1m-149 1h1m1 0h3m1 0h1m3 0h1m1 0h1m2 0h1m3 0h2m1 0h1m1 0h1m3 0h5m1 0h1m6 0h1m2 0h4m2 0h3m1 0h1m1 0h7m1 0h2m3 0h2m1 0h3m1 0h1m1 0h2m2 0h9m2 0h3m1 0h3m2 0h5m1 0h9m4 0h1m2 0h2m2 0h1m4 0h2m3 0h1m3 0h1m1 0h3m1 0h1m-149 1h1m5 0h1m1 0h4m1 0h5m2 0h1m2 0h1m1 0h1m1 0h2m3 0h1m1 0h2m1 0h1m1 0h1m2 0h2m2 0h1m2 0h1m1 0h1m1 0h2m1 0h1m3 0h2m1 0h2m2 0h1m2 0h1m8 0h3m1 0h2m3 0h1m2 0h2m5 0h1m2 0h2m3 0h2m2 0h1m1 0h1m3 0h1m1 0h1m1 0h2m3 0h3m2 0h1m1 0h2m2 0h2m2 0h1m1 0h1m5 0h1m-149 1h7m1 0h1m1 0h1m1 0h1m1 0h1m1 0h1m1 0h1m1 0h1m1 0h1m1 0h1m1 0h1m1 0h1m1 0h1m1 0h1m1 0h1m1 0h1m1 0h1m1 0h1m1 0h1m1 0h1m1 0h1m1 0h1m1 0h1m1 0h1m1 0h1m1 0h1m1 0h1m1 0h1m1 0h1m1 0h1m1 0h1m1 0h1m1 0h1m1 0h1m1 0h1m1 0h1m1 0h1m1 0h1m1 0h1m1 0h1m1 0h1m1 0h1m1 0h1m1 0h1m1 0h1m1 0h1m1 0h1m1 0h1m1 0h1m1 0h1m1 0h1m1 0h1m1 0h1m1 0h1m1 0h1m1 0h1m1 0h1m1 0h1m1 0h1m1 0h1m1 0h1m1 0h1m1 0h1m1 0h1m1 0h1m1 0h1m1 0h1m1 0h1m1 0h7m-141 1h1m3 0h5m2 0h2m2 0h1m1 0h4m3 0h1m2 0h3m1 0h1m1 0h2m1 0h2m1 0h3m1 0h1m2 0h3m3 0h2m3 0h2m1 0h2m1 0h3m3 0h1m2 0h5m3 0h2m2 0h2m1 0h1m4 0h2m2 0h1m2 0h2m2 0h2m3 0h8m1 0h3m1 0h4m3 0h3m1 0h1m-137 1h4m6 0h3m1 0h2m5 0h8m1 0h1m2 0h5m1 0h1m1 0h3m3 0h1m1 0h1m2 0h6m2 0h2m5 0h1m1 0h4m2 0h4m1 0h6m2 0h4m2 0h1m2 0h2m4 0h1m2 0h1m1 0h5m1 0h1m1 0h1m1 0h1m2 0h2m3 0h1m1 0h1m2 0h4m1 0h1m1 0h2m3 0h1m-148 1h2m1 0h1m3 0h2m1 0h1m1 0h1m2 0h1m3 0h2m1 0h1m1 0h2m3 0h1m4 0h1m6 0h1m1 0h5m2 0h3m1 0h1m1 0h1m1 0h2m1 0h1m2 0h2m3 0h2m1 0h1m5 0h2m2 0h4m1 0h1m1 0h2m2 0h3m1 0h3m1 0h1m2 0h3m1 0h4m1 0h3m8 0h2m2 0h1m6 0h3m3 0h1m2 0h1m-143 1h1m1 0h3m5 0h2m4 0h2m1 0h2m1 0h1m1 0h3m1 0h1m1 0h2m2 0h1m1 0h1m1 0h2m2 0h2m1 0h2m1 0h1m1 0h1m6 0h4m2 0h2m1 0h2m1 0h4m1 0h3m3 0h3m3 0h3m2 0h5m1 0h4m2 0h1m2 0h2m1 0h2m1 0h2m1 0h1m1 0h1m1 0h1m1 0h2m3 0h2m1 0h1m1 0h1m1 0h2m2 0h1m1 0h2m3 0h1m-147 1h2m1 0h3m6 0h1m2 0h2m2 0h2m2 0h1m2 0h7m2 0h3m1 0h1m1 0h2m1 0h2m1 0h3m1 0h1m2 0h5m1 0h3m2 0h2m1 0h2m1 0h2m4 0h1m2 0h3m1 0h2m1 0h3m2 0h2m1 0h1m4 0h1m1 0h2m3 0h2m3 0h1m2 0h6m1 0h2m1 0h3m1 0h4m1 0h2m1 0h2m1 0h1m1 0h2m1 0h3m-146 1h1m3 0h3m5 0h3m1 0h2m5 0h1m1 0h3m4 0h1m2 0h5m1 0h1m1 0h3m3 0h1m1 0h1m3 0h4m1 0h1m1 0h2m5 0h1m1 0h1m5 0h4m1 0h1m1 0h1m1 0h2m2 0h4m2 0h1m3 0h3m2 0h1m2 0h1m5 0h1m1 0h1m1 0h3m2 0h2m3 0h1m1 0h3m2 0h2m1 0h1m2 0h6m-149 1h2m1 0h1m3 0h2m1 0h1m1 0h1m2 0h1m3 0h2m1 0h1m1 0h1m4 0h1m4 0h1m6 0h1m2 0h4m2 0h3m1 0h1m1 0h1m1 0h1m2 0h2m1 0h2m3 0h2m1 0h3m1 0h1m1 0h2m2 0h4m1 0h1m1 0h2m1 0h2m1 0h1m1 0h3m1 0h1m1 0h4m1 0h4m1 0h3m5 0h2m1 0h2m2 0h1m4 0h2m2 0h1m3 0h1m2 0h1m-143 1h1m1 0h3m5 0h1m1 0h1m3 0h2m1 0h2m1 0h1m1 0h1m1 0h1m1 0h1m1 0h2m2 0h1m1 0h1m1 0h2m2 0h2m1 0h2m1 0h1m1 0h1m6 0h1m2 0h1m2 0h2m1 0h2m1 0h8m3 0h3m3 0h3m4 0h3m1 0h7m2 0h2m1 0h2m1 0h2m1 0h1m1 0h1m2 0h3m3 0h2m1 0h1m2 0h3m2 0h1m1 0h2m3 0h1m-147 1h2m1 0h3m7 0h1m1 0h2m2 0h2m2 0h1m1 0h3m3 0h2m2 0h3m1 0h1m1 0h2m1 0h2m1 0h3m1 0h1m2 0h5m1 0h2m3 0h2m1 0h2m1 0h3m3 0h1m2 0h3m1 0h2m1 0h3m4 0h2m4 0h1m1 0h1m1 0h1m2 0h2m3 0h1m2 0h6m2 0h1m1 0h3m1 0h4m2 0h1m1 0h2m1 0h1m1 0h2m1 0h3m-146 1h1m3 0h3m2 0h3m1 0h2m1 0h2m5 0h2m3 0h1m3 0h1m2 0h5m1 0h1m1 0h3m3 0h1m1 0h1m3 0h3m1 0h1m2 0h2m5 0h1m1 0h4m2 0h4m1 0h1m1 0h1m1 0h2m1 0h2m1 0h2m2 0h1m3 0h1m4 0h1m2 0h1m5 0h1m1 0h1m1 0h1m4 0h2m3 0h1m1 0h1m4 0h2m1 0h1m2 0h6m-149 1h2m1 0h1m3 0h2m1 0h2m1 0h1m1 0h1m3 0h2m1 0h1m1 0h2m3 0h1m4 0h1m6 0h1m1 0h5m2 0h3m1 0h1m1 0h1m1 0h2m1 0h1m2 0h2m3 0h2m1 0h2m4 0h2m2 0h4m1 0h1m1 0h2m1 0h1m1 0h2m1 0h3m1 0h1m2 0h3m1 0h4m1 0h3m8 0h2m2 0h1m6 0h1m1 0h1m3 0h1m2 0h1m-143 1h1m1 0h3m4 0h3m4 0h2m1 0h2m1 0h1m1 0h1m2 0h2m1 0h2m2 0h1m1 0h1m1 0h2m2 0h2m1 0h2m1 0h1m1 0h1m6 0h4m2 0h2m1 0h2m1 0h2m1 0h1m1 0h3m3 0h3m3 0h3m1 0h6m1 0h4m2 0h1m2 0h2m1 0h2m1 0h2m1 0h1m1 0h1m1 0h1m1 0h2m3 0h2m1 0h1m1 0h1m5 0h1m1 0h2m3 0h1m-147 1h2m1 0h3m6 0h5m2 0h2m2 0h1m2 0h1m1 0h2m1 0h2m2 0h3m1 0h1m1 0h2m1 0h2m1 0h3m1 0h1m2 0h5m1 0h3m2 0h2m1 0h2m1 0h2m4 0h1m2 0h3m1 0h2m1 0h3m1 0h1m3 0h1m4 0h1m1 0h2m3 0h2m3 0h1m2 0h6m1 0h2m1 0h3m1 0h4m1 0h2m1 0h2m1 0h1m1 0h2m1 0h3m-146 1h1m3 0h3m4 0h1m1 0h2m1 0h2m5 0h1m2 0h2m4 0h1m2 0h5m1 0h1m1 0h3m3 0h1m1 0h1m3 0h4m1 0h1m1 0h2m5 0h1m1 0h1m2 0h1m2 0h4m1 0h1m1 0h1m1 0h2m1 0h1m3 0h1m2 0h1m3 0h3m2 0h1m2 0h1m5 0h1m1 0h1m1 0h3m2 0h2m3 0h1m1 0h3m1 0h3m1 0h1m2 0h6m-149 1h2m1 0h1m3 0h2m1 0h2m3 0h1m3 0h2m1 0h1m1 0h1m5 0h1m3 0h1m6 0h1m2 0h4m2 0h3m1 0h1m1 0h1m1 0h1m2 0h2m1 0h2m3 0h2m1 0h2m1 0h1m2 0h2m2 0h4m1 0h1m1 0h2m1 0h2m1 0h1m1 0h3m1 0h1m1 0h4m1 0h4m1 0h3m4 0h3m1 0h2m2 0h1m4 0h2m1 0h2m3 0h1m2 0h1m-143 1h1m1 0h3m6 0h2m3 0h2m1 0h2m1 0h1m1 0h1m2 0h1m2 0h2m2 0h1m1 0h1m1 0h2m2 0h2m1 0h2m1 0h1m1 0h1m6 0h1m2 0h1m2 0h2m1 0h2m1 0h2m1 0h2m1 0h2m3 0h3m3 0h3m4 0h3m1 0h7m2 0h2m1 0h2m1 0h2m1 0h1m1 0h2m1 0h3m3 0h2m1 0h1m2 0h3m2 0h1m1 0h2m3 0h1m-147 1h2m1 0h3m5 0h1m1 0h4m2 0h2m2 0h1m1 0h2m1 0h1m2 0h2m2 0h3m1 0h1m1 0h2m1 0h2m1 0h3m1 0h1m2 0h5m1 0h2m3 0h2m1 0h2m1 0h2m3 0h2m2 0h3m1 0h2m1 0h3m3 0h1m1 0h1m4 0h1m1 0h1m1 0h1m2 0h2m3 0h1m2 0h4m4 0h1m1 0h3m1 0h4m2 0h1m1 0h2m1 0h1m1 0h2m1 0h3m-146 1h1m3 0h3m2 0h6m1 0h2m5 0h2m1 0h1m5 0h1m2 0h5m1 0h1m1 0h3m3 0h1m1 0h1m3 0h3m1 0h1m2 0h2m5 0h1m1 0h1m1 0h2m2 0h4m1 0h1m1 0h1m1 0h2m1 0h5m2 0h1m3 0h1m4 0h1m2 0h1m5 0h1m1 0h2m5 0h2m3 0h1m1 0h1m4 0h2m1 0h1m2 0h6m-149 1h2m1 0h1m3 0h2m1 0h2m2 0h2m3 0h2m1 0h1m1 0h2m4 0h1m3 0h1m6 0h1m1 0h5m2 0h3m1 0h1m1 0h1m1 0h2m1 0h1m2 0h2m3 0h2m1 0h2m1 0h1m2 0h2m2 0h4m1 0h1m1 0h2m1 0h4m1 0h3m1 0h1m2 0h3m1 0h4m1 0h3m3 0h1m4 0h2m2 0h1m7 0h2m3 0h1m2 0h1m-143 1h1m1 0h3m4 0h3m4 0h2m1 0h2m1 0h1m1 0h1m2 0h2m1 0h2m2 0h1m1 0h1m1 0h2m2 0h5m1 0h1m1 0h1m2 0h1m3 0h4m2 0h2m1 0h2m1 0h2m1 0h2m1 0h2m3 0h3m3 0h3m1 0h1m1 0h4m1 0h4m2 0h1m2 0h2m1 0h2m1 0h2m1 0h1m1 0h1m1 0h1m1 0h2m3 0h2m1 0h1m1 0h1m1 0h2m2 0h1m1 0h2m3 0h1m-147 1h2m1 0h3m6 0h5m2 0h2m2 0h1m2 0h1m1 0h2m1 0h2m2 0h3m1 0h1m1 0h2m1 0h2m1 0h3m1 0h1m2 0h2m1 0h2m1 0h3m2 0h2m1 0h2m1 0h2m2 0h1m1 0h1m2 0h3m1 0h2m1 0h3m1 0h1m3 0h1m4 0h1m1 0h2m3 0h2m3 0h1m2 0h6m1 0h2m1 0h3m1 0h4m1 0h2m1 0h2m1 0h1m1 0h2m1 0h3m-146 1h1m1 0h5m4 0h1m1 0h2m1 0h2m5 0h1m2 0h5m1 0h1m2 0h5m1 0h1m3 0h1m3 0h1m1 0h1m1 0h6m1 0h1m1 0h2m5 0h1m1 0h1m2 0h1m2 0h4m1 0h6m1 0h1m3 0h1m2 0h1m3 0h3m2 0h1m2 0h1m1 0h5m1 0h1m1 0h3m2 0h2m3 0h1m1 0h1m1 0h1m2 0h2m1 0h9m-149 1h2m1 0h2m3 0h1m1 0h2m3 0h1m3 0h2m1 0h1m1 0h1m2 0h2m3 0h1m1 0h1m6 0h1m2 0h4m2 0h3m1 0h1m1 0h1m3 0h3m1 0h2m3 0h2m1 0h2m4 0h2m2 0h1m1 0h1m3 0h3m1 0h2m1 0h1m1 0h3m1 0h1m1 0h4m1 0h3m1 0h1m3 0h1m3 0h3m1 0h2m2 0h1m7 0h2m1 0h2m3 0h1m-143 1h1m1 0h1m1 0h1m1 0h1m4 0h2m3 0h2m1 0h2m1 0h5m1 0h1m1 0h2m2 0h1m1 0h1m1 0h2m2 0h2m1 0h2m1 0h1m1 0h1m2 0h2m1 0h1m1 0h1m1 0h1m2 0h2m1 0h2m1 0h2m1 0h1m1 0h3m3 0h1m1 0h1m1 0h1m1 0h3m4 0h3m1 0h7m2 0h2m2 0h1m1 0h1m1 0h2m1 0h2m1 0h3m3 0h2m1 0h1m1 0h1m1 0h2m2 0h2m1 0h1m1 0h1m1 0h1m-147 1h2m1 0h2m3 0h1m2 0h1m1 0h4m2 0h2m2 0h1m2 0h3m3 0h1m2 0h3m1 0h1m1 0h2m1 0h1m2 0h3m1 0h1m2 0h1m1 0h1m3 0h2m3 0h2m1 0h2m1 0h2m3 0h2m2 0h5m3 0h2m3 0h1m1 0h1m4 0h1m1 0h1m1 0h1m2 0h2m2 0h2m3 0h3m4 0h1m1 0h3m1 0h4m1 0h2m1 0h4m3 0h4m-146 1h1m1 0h5m2 0h6m1 0h2m7 0h6m1 0h1m2 0h5m1 0h1m3 0h1m3 0h1m1 0h1m1 0h7m2 0h2m5 0h1m1 0h1m2 0h1m2 0h4m1 0h6m1 0h5m2 0h1m3 0h1m4 0h1m2 0h1m1 0h5m1 0h2m5 0h2m3 0h1m1 0h1m1 0h1m2 0h2m1 0h9m-149 1h2m1 0h1m3 0h2m1 0h2m2 0h2m3 0h2m1 0h1m1 0h2m1 0h2m1 0h1m3 0h1m6 0h1m1 0h3m1 0h1m2 0h3m1 0h8m2 0h2m3 0h2m1 0h2m4 0h2m2 0h2m2 0h1m1 0h3m1 0h4m1 0h3m1 0h1m6 0h3m1 0h1m3 0h1m2 0h1m4 0h2m2 0h1m7 0h2m1 0h2m2 0h2m-143 1h1m1 0h3m4 0h3m4 0h2m1 0h2m1 0h5m2 0h3m2 0h1m1 0h1m1 0h2m2 0h2m1 0h2m1 0h1m1 0h1m2 0h3m1 0h4m2 0h2m1 0h2m1 0h2m1 0h1m1 0h3m3 0h1m3 0h1m1 0h3m1 0h1m1 0h4m1 0h5m1 0h2m1 0h2m1 0h2m3 0h2m1 0h1m1 0h1m1 0h2m3 0h2m1 0h1m1 0h1m1 0h2m2 0h2m1 0h2m2 0h1m-147 1h2m1 0h3m6 0h5m2 0h2m2 0h1m2 0h1m1 0h1m3 0h1m2 0h3m1 0h1m1 0h2m1 0h1m1 0h4m1 0h1m2 0h3m2 0h1m1 0h2m2 0h2m1 0h2m1 0h2m3 0h2m2 0h5m3 0h2m1 0h1m3 0h1m4 0h1m1 0h2m2 0h3m2 0h1m2 0h2m1 0h4m1 0h2m1 0h3m1 0h4m1 0h2m1 0h2m1 0h3m2 0h3m-146 1h1m3 0h3m4 0h1m1 0h2m1 0h2m8 0h3m3 0h1m2 0h5m1 0h5m3 0h1m1 0h1m5 0h1m2 0h1m1 0h2m5 0h1m1 0h1m2 0h1m2 0h4m1 0h1m1 0h1m2 0h1m1 0h1m3 0h1m2 0h1m3 0h4m1 0h1m2 0h1m2 0h2m3 0h1m1 0h3m2 0h2m3 0h1m1 0h1m1 0h1m2 0h2m2 0h1m2 0h5m-149 1h2m1 0h1m3 0h2m1 0h2m3 0h1m3 0h2m1 0h1m1 0h2m1 0h2m5 0h1m6 0h1m1 0h5m2 0h3m1 0h2m1 0h3m1 0h2m1 0h2m3 0h2m1 0h2m4 0h2m2 0h2m2 0h1m1 0h3m1 0h2m1 0h1m1 0h3m1 0h1m2 0h1m3 0h3m1 0h1m3 0h1m3 0h3m1 0h2m2 0h1m7 0h2m1 0h2m2 0h2m-143 1h1m1 0h3m6 0h2m3 0h2m1 0h2m1 0h6m1 0h3m2 0h1m1 0h1m1 0h2m1 0h2m1 0h3m1 0h1m1 0h1m4 0h1m2 0h1m1 0h1m2 0h2m1 0h2m1 0h2m1 0h1m1 0h3m3 0h1m3 0h1m1 0h3m4 0h3m1 0h4m3 0h1m1 0h2m1 0h2m3 0h2m1 0h2m1 0h3m3 0h2m1 0h1m1 0h1m1 0h2m2 0h2m1 0h2m2 0h1m-147 1h2m1 0h3m5 0h1m1 0h4m2 0h2m2 0h1m2 0h1m1 0h3m1 0h1m2 0h3m1 0h1m1 0h2m1 0h1m1 0h4m1 0h1m2 0h3m2 0h3m3 0h2m1 0h2m1 0h2m3 0h2m2 0h5m3 0h2m3 0h1m1 0h1m4 0h1m1 0h2m1 0h4m2 0h1m2 0h2m1 0h2m4 0h1m1 0h3m1 0h4m1 0h2m1 0h2m1 0h3m2 0h3m-146 1h1m3 0h3m2 0h6m1 0h2m3 0h2m3 0h1m1 0h1m3 0h1m2 0h5m3 0h3m3 0h1m1 0h1m1 0h2m2 0h1m1 0h1m2 0h2m5 0h1m1 0h1m2 0h1m2 0h4m1 0h1m1 0h1m2 0h1m1 0h5m2 0h1m3 0h4m1 0h1m2 0h1m2 0h2m3 0h2m5 0h2m3 0h1m1 0h1m1 0h1m2 0h2m2 0h1m2 0h5m-149 1h2m1 0h1m3 0h2m1 0h2m2 0h2m3 0h2m1 0h1m2 0h1m1 0h2m1 0h1m3 0h1m6 0h1m3 0h1m1 0h1m2 0h3m1 0h8m2 0h2m3 0h2m1 0h2m3 0h3m2 0h2m2 0h1m1 0h3m1 0h4m1 0h3m1 0h1m2 0h3m1 0h3m1 0h1m3 0h1m2 0h1m4 0h2m2 0h1m7 0h2m1 0h2m2 0h2m-143 1h1m1 0h3m4 0h3m4 0h2m1 0h2m1 0h5m2 0h3m2 0h1m1 0h1m1 0h2m1 0h3m1 0h2m1 0h1m1 0h1m2 0h3m1 0h3m3 0h2m1 0h2m1 0h2m1 0h1m1 0h1m5 0h1m3 0h1m1 0h3m1 0h1m1 0h4m1 0h4m2 0h1m2 0h2m1 0h2m3 0h2m1 0h1m1 0h1m1 0h2m3 0h2m1 0h1m1 0h1m1 0h2m2 0h2m1 0h2m2 0h1m-147 1h2m1 0h3m6 0h5m2 0h2m2 0h2m1 0h1m1 0h1m3 0h1m2 0h3m1 0h1m1 0h3m2 0h4m1 0h1m2 0h3m2 0h1m1 0h1m3 0h2m1 0h2m1 0h2m3 0h2m2 0h5m3 0h2m1 0h1m3 0h1m4 0h1m1 0h2m3 0h2m2 0h1m2 0h2m1 0h4m1 0h2m1 0h3m1 0h4m1 0h2m1 0h2m1 0h3m2 0h3m-146 1h1m3 0h3m4 0h1m1 0h2m1 0h2m3 0h1m4 0h3m3 0h1m2 0h5m1 0h5m3 0h1m1 0h1m5 0h2m3 0h2m5 0h1m1 0h1m2 0h1m1 0h5m1 0h1m1 0h1m2 0h1m1 0h1m3 0h1m2 0h1m3 0h3m2 0h1m2 0h1m2 0h2m3 0h1m1 0h3m2 0h2m3 0h1m1 0h1m1 0h1m2 0h2m2 0h1m2 0h5m-149 1h2m1 0h1m3 0h2m1 0h2m3 0h1m3 0h2m1 0h1m1 0h2m1 0h2m5 0h1m6 0h1m1 0h1m1 0h3m2 0h3m1 0h2m1 0h3m1 0h2m1 0h2m3 0h2m1 0h2m3 0h3m2 0h2m2 0h1m1 0h3m1 0h2m1 0h1m1 0h3m1 0h1m2 0h1m3 0h3m1 0h1m3 0h1m3 0h3m1 0h2m2 0h1m3 0h1m3 0h2m1 0h2m2 0h2m-143 1h1m1 0h3m6 0h2m3 0h2m1 0h2m2 0h5m1 0h3m2 0h1m1 0h1m1 0h2m4 0h3m1 0h1m1 0h1m4 0h1m3 0h1m3 0h2m1 0h2m1 0h2m1 0h1m1 0h3m3 0h1m3 0h1m1 0h3m4 0h3m1 0h4m3 0h1m1 0h2m1 0h2m3 0h2m1 0h2m1 0h3m3 0h2m1 0h3m1 0h2m2 0h2m1 0h2m2 0h1m-147 1h2m1 0h3m5 0h1m1 0h4m2 0h2m2 0h1m2 0h1m1 0h3m1 0h1m2 0h3m1 0h1m1 0h2m1 0h1m1 0h4m1 0h1m2 0h3m2 0h3m3 0h2m1 0h2m1 0h2m3 0h2m2 0h5m3 0h2m3 0h1m1 0h1m4 0h1m1 0h2m1 0h4m2 0h1m2 0h2m1 0h2m4 0h1m1 0h3m1 0h2m3 0h2m1 0h2m1 0h3m2 0h3m-146 1h1m3 0h3m2 0h6m1 0h2m3 0h2m3 0h1m1 0h1m3 0h1m2 0h5m1 0h5m3 0h1m1 0h1m1 0h2m7 0h2m5 0h1m1 0h1m2 0h2m1 0h4m1 0h1m1 0h1m2 0h1m1 0h5m2 0h1m3 0h4m1 0h1m2 0h1m2 0h2m3 0h2m5 0h2m3 0h2m2 0h1m3 0h1m2 0h1m2 0h5m-149 1h2m1 0h1m3 0h2m1 0h2m2 0h2m3 0h2m1 0h1m2 0h1m1 0h2m1 0h1m3 0h1m6 0h1m1 0h1m1 0h1m1 0h1m2 0h3m1 0h6m1 0h2m1 0h2m3 0h2m1 0h2m5 0h1m2 0h2m2 0h1m1 0h3m2 0h3m1 0h3m1 0h1m2 0h3m1 0h3m1 0h1m3 0h1m2 0h1m4 0h2m2 0h1m2 0h1m4 0h2m1 0h2m2 0h2m-143 1h1m1 0h3m4 0h3m4 0h2m1 0h2m1 0h5m2 0h2m1 0h1m1 0h1m1 0h1m1 0h2m3 0h1m1 0h2m1 0h1m1 0h1m2 0h3m1 0h1m1 0h1m3 0h2m1 0h2m1 0h2m1 0h1m1 0h3m3 0h1m3 0h1m1 0h5m1 0h4m1 0h4m2 0h1m2 0h2m1 0h2m3 0h2m1 0h1m1 0h1m1 0h2m3 0h2m1 0h1m1 0h1m1 0h6m1 0h2m2 0h1m-147 1h2m1 0h3m6 0h5m2 0h2m2 0h2m1 0h1m1 0h1m3 0h1m1 0h4m1 0h1m1 0h2m1 0h1m1 0h4m1 0h1m2 0h3m4 0h1m3 0h2m1 0h2m1 0h2m3 0h1m3 0h5m3 0h2m5 0h1m4 0h1m1 0h2m3 0h2m2 0h1m2 0h2m1 0h4m1 0h2m1 0h3m1 0h4m1 0h2m2 0h1m1 0h3m2 0h3m-146 1h1m3 0h3m4 0h1m1 0h2m1 0h2m3 0h1m4 0h3m3 0h1m2 0h5m1 0h5m3 0h1m1 0h1m6 0h1m3 0h2m5 0h1m1 0h1m2 0h2m1 0h4m1 0h1m1 0h1m2 0h1m1 0h2m2 0h1m2 0h1m3 0h3m2 0h1m2 0h1m2 0h2m3 0h1m1 0h1m1 0h1m2 0h2m3 0h1m1 0h1m1 0h1m3 0h1m2 0h1m2 0h5m-149 1h2m1 0h1m3 0h2m1 0h1m4 0h1m3 0h2m1 0h1m1 0h2m1 0h2m4 0h1m7 0h1m1 0h1m1 0h3m2 0h3m1 0h2m1 0h3m1 0h2m1 0h2m3 0h2m2 0h1m3 0h3m2 0h2m2 0h1m1 0h3m1 0h2m1 0h1m1 0h3m1 0h1m2 0h1m3 0h3m1 0h1m3 0h1m3 0h1m3 0h2m2 0h1m3 0h1m3 0h1m1 0h3m2 0h2m-143 1h1m1 0h3m4 0h4m3 0h2m1 0h2m2 0h5m1 0h3m2 0h1m1 0h1m1 0h2m4 0h3m1 0h1m1 0h1m4 0h1m3 0h1m3 0h2m1 0h2m1 0h2m1 0h1m1 0h3m3 0h1m3 0h1m1 0h3m1 0h1m2 0h3m1 0h4m3 0h1m1 0h2m1 0h2m3 0h2m1 0h3m1 0h2m3 0h2m1 0h3m1 0h6m1 0h2m2 0h1m-147 1h2m1 0h3m5 0h2m2 0h2m2 0h2m2 0h1m2 0h1m1 0h3m1 0h2m1 0h3m1 0h1m1 0h2m1 0h1m1 0h4m1 0h1m2 0h3m4 0h1m3 0h2m1 0h2m2 0h1m3 0h3m1 0h5m3 0h2m3 0h1m1 0h1m4 0h1m1 0h2m1 0h4m2 0h1m2 0h2m1 0h2m3 0h2m1 0h3m1 0h2m3 0h2m2 0h1m1 0h3m2 0h3m-146 1h1m1 0h5m4 0h4m1 0h2m3 0h2m3 0h5m4 0h5m1 0h5m3 0h1m1 0h1m1 0h6m3 0h2m5 0h1m1 0h1m2 0h2m1 0h4m1 0h6m2 0h4m2 0h1m3 0h4m1 0h1m2 0h1m1 0h5m1 0h2m2 0h1m2 0h2m3 0h2m2 0h1m2 0h1m2 0h9m-149 1h2m1 0h2m3 0h1m1 0h2m1 0h3m3 0h2m1 0h1m2 0h1m1 0h2m3 0h3m6 0h1m1 0h1m1 0h1m1 0h1m2 0h3m1 0h3m3 0h3m1 0h2m3 0h5m5 0h1m2 0h1m1 0h1m3 0h3m1 0h4m1 0h3m1 0h1m2 0h3m1 0h3m1 0h1m3 0h1m2 0h1m4 0h2m2 0h1m2 0h1m4 0h2m2 0h1m3 0h1m-143 1h1m1 0h1m1 0h1m1 0h1m2 0h4m3 0h2m1 0h2m1 0h3m1 0h1m1 0h1m1 0h3m1 0h1m1 0h1m1 0h2m3 0h1m1 0h2m1 0h1m1 0h1m3 0h1m1 0h1m1 0h2m3 0h2m1 0h2m1 0h1m2 0h1m1 0h3m3 0h1m1 0h1m1 0h1m1 0h3m1 0h1m1 0h4m1 0h4m2 0h1m2 0h2m1 0h2m1 0h1m1 0h2m1 0h1m1 0h1m1 0h2m3 0h2m1 0h1m1 0h1m1 0h2m3 0h1m1 0h1m1 0h1m1 0h1m-147 1h2m1 0h2m3 0h1m2 0h2m2 0h2m2 0h2m2 0h2m1 0h1m1 0h1m3 0h1m1 0h4m1 0h1m1 0h2m1 0h1m1 0h4m1 0h1m2 0h1m1 0h1m3 0h2m3 0h2m1 0h2m2 0h1m3 0h1m3 0h3m1 0h1m3 0h2m1 0h1m1 0h1m1 0h1m4 0h1m1 0h2m3 0h2m3 0h1m3 0h5m1 0h2m1 0h3m1 0h4m1 0h2m1 0h2m1 0h1m3 0h4m-146 1h1m1 0h5m3 0h5m1 0h2m3 0h1m4 0h7m2 0h5m1 0h5m3 0h1m1 0h1m2 0h5m3 0h2m7 0h1m2 0h2m1 0h11m3 0h1m1 0h1m2 0h1m3 0h3m2 0h1m2 0h1m1 0h5m1 0h1m1 0h1m1 0h1m2 0h2m3 0h1m1 0h1m1 0h1m3 0h1m1 0h9m-149 1h2m1 0h1m3 0h2m1 0h1m1 0h4m3 0h2m1 0h1m1 0h2m2 0h1m1 0h1m3 0h1m6 0h1m1 0h1m1 0h3m2 0h3m1 0h1m5 0h3m1 0h2m3 0h2m2 0h1m3 0h3m2 0h1m1 0h1m1 0h1m2 0h2m1 0h4m1 0h3m1 0h1m2 0h1m3 0h3m2 0h2m5 0h1m3 0h2m2 0h1m3 0h1m3 0h1m1 0h1m1 0h2m2 0h1m-143 1h1m1 0h3m4 0h1m1 0h2m3 0h2m1 0h2m2 0h5m1 0h3m2 0h1m1 0h1m1 0h2m4 0h3m1 0h1m1 0h1m2 0h2m3 0h2m3 0h2m1 0h2m1 0h2m1 0h1m1 0h3m3 0h1m2 0h1m1 0h1m1 0h2m1 0h1m1 0h4m1 0h4m3 0h1m1 0h2m2 0h4m1 0h1m3 0h1m1 0h2m3 0h2m1 0h3m1 0h8m3 0h1m-147 1h2m1 0h3m6 0h1m2 0h2m2 0h2m2 0h1m2 0h1m4 0h2m2 0h3m1 0h1m1 0h2m1 0h1m1 0h4m1 0h1m2 0h2m1 0h1m3 0h1m3 0h2m1 0h2m2 0h1m3 0h3m1 0h5m1 0h1m1 0h2m1 0h1m1 0h1m1 0h1m4 0h1m1 0h2m1 0h4m2 0h2m3 0h5m1 0h2m1 0h3m1 0h2m3 0h2m1 0h1m1 0h1m2 0h2m1 0h3m-146 1h1m3 0h3m3 0h5m1 0h2m3 0h2m2 0h1m1 0h3m1 0h2m2 0h5m1 0h5m3 0h1m1 0h1m2 0h5m3 0h2m5 0h1m1 0h1m2 0h2m1 0h5m1 0h3m1 0h1m3 0h1m1 0h1m2 0h1m3 0h4m1 0h1m2 0h2m1 0h1m2 0h1m1 0h1m3 0h1m2 0h2m3 0h2m2 0h1m2 0h1m1 0h1m3 0h6m-149 1h2m5 0h1m2 0h1m1 0h4m3 0h2m1 0h1m2 0h1m2 0h3m10 0h1m1 0h1m1 0h1m1 0h1m2 0h3m1 0h2m4 0h3m1 0h2m3 0h5m5 0h1m2 0h1m1 0h1m1 0h1m2 0h2m1 0h4m1 0h3m1 0h1m2 0h3m1 0h3m2 0h2m5 0h1m3 0h2m2 0h1m2 0h1m4 0h2m2 0h2m2 0h1m-141 1h3m4 0h1m1 0h2m3 0h2m1 0h2m1 0h11m1 0h1m1 0h1m1 0h2m3 0h1m1 0h2m1 0h1m1 0h1m2 0h1m4 0h2m4 0h1m1 0h2m1 0h1m2 0h1m1 0h3m3 0h1m2 0h1m3 0h2m1 0h1m1 0h4m1 0h4m2 0h1m2 0h2m2 0h4m1 0h1m1 0h3m1 0h2m3 0h2m1 0h1m1 0h1m1 0h2m2 0h4m3 0h1m-147 1h2m2 0h2m1 0h2m3 0h1m2 0h2m2 0h2m2 0h2m1 0h1m2 0h1m1 0h2m1 0h4m1 0h1m1 0h2m1 0h1m1 0h4m1 0h1m2 0h4m3 0h1m3 0h1m2 0h2m2 0h1m3 0h1m3 0h5m1 0h1m2 0h1m1 0h1m1 0h1m1 0h1m4 0h1m1 0h2m3 0h2m2 0h2m3 0h3m3 0h2m1 0h3m1 0h4m1 0h2m1 0h3m2 0h2m1 0h3m-146 1h1m3 0h1m5 0h5m1 0h2m3 0h1m3 0h1m3 0h1m1 0h2m2 0h2m2 0h1m1 0h5m3 0h1m1 0h1m1 0h1m1 0h4m3 0h2m7 0h1m2 0h2m1 0h5m1 0h2m1 0h2m3 0h1m1 0h1m2 0h1m3 0h3m2 0h1m2 0h2m1 0h1m2 0h1m1 0h2m2 0h1m2 0h2m3 0h1m1 0h1m1 0h1m3 0h2m3 0h6m-149 1h2m1 0h1m3 0h2m1 0h1m1 0h4m3 0h2m1 0h1m1 0h2m2 0h3m3 0h1m5 0h2m1 0h1m1 0h3m2 0h3m1 0h1m1 0h1m3 0h3m1 0h2m3 0h2m2 0h1m3 0h3m2 0h1m1 0h1m1 0h5m1 0h4m1 0h3m1 0h1m2 0h1m3 0h3m2 0h2m4 0h2m3 0h2m2 0h1m3 0h1m3 0h1m1 0h1m1 0h2m2 0h1m-143 1h5m4 0h1m1 0h2m3 0h2m1 0h2m2 0h5m1 0h3m2 0h1m1 0h1m1 0h2m3 0h1m1 0h2m1 0h1m1 0h1m7 0h2m3 0h1m2 0h2m1 0h2m1 0h1m1 0h3m3 0h1m2 0h1m1 0h4m1 0h1m1 0h4m1 0h4m3 0h1m1 0h2m2 0h4m1 0h1m1 0h3m1 0h2m3 0h2m1 0h3m1 0h8m3 0h1m-147 1h2m1 0h3m6 0h1m2 0h2m2 0h2m2 0h1m2 0h1m3 0h3m2 0h3m2 0h3m1 0h6m1 0h1m2 0h1m2 0h1m3 0h1m4 0h1m1 0h2m2 0h1m3 0h3m1 0h5m1 0h4m1 0h1m1 0h1m1 0h1m4 0h1m1 0h2m1 0h4m2 0h2m3 0h3m3 0h2m1 0h3m1 0h2m3 0h2m1 0h1m1 0h1m2 0h2m1 0h3m-146 1h1m3 0h1m5 0h5m1 0h2m3 0h2m2 0h1m3 0h1m1 0h2m2 0h5m1 0h2m1 0h2m3 0h1m1 0h1m1 0h6m3 0h3m4 0h1m1 0h1m2 0h2m1 0h5m1 0h3m1 0h1m3 0h1m1 0h1m2 0h1m3 0h4m1 0h1m2 0h2m1 0h1m2 0h1m1 0h2m2 0h1m2 0h2m3 0h2m2 0h1m2 0h1m1 0h1m3 0h6m-149 1h3m4 0h1m2 0h1m1 0h4m3 0h2m1 0h1m2 0h1m2 0h3m8 0h3m1 0h1m3 0h1m2 0h3m1 0h2m4 0h3m1 0h2m3 0h5m5 0h1m2 0h1m1 0h1m1 0h1m1 0h3m1 0h4m1 0h3m1 0h1m2 0h3m1 0h3m2 0h2m4 0h2m3 0h2m2 0h1m2 0h1m4 0h2m2 0h2m2 0h1m-141 1h3m4 0h1m1 0h2m3 0h2m1 0h2m1 0h6m1 0h4m1 0h1m1 0h2m1 0h1m3 0h1m1 0h2m1 0h1m1 0h1m2 0h2m3 0h2m3 0h2m1 0h2m1 0h1m2 0h1m1 0h3m3 0h1m2 0h1m3 0h2m1 0h1m1 0h4m1 0h4m2 0h1m2 0h2m2 0h6m1 0h3m1 0h4m1 0h2m1 0h1m1 0h1m1 0h2m2 0h4m3 0h1m-147 1h2m2 0h2m1 0h2m3 0h1m2 0h2m2 0h2m2 0h1m2 0h1m3 0h3m1 0h4m2 0h3m1 0h6m1 0h1m2 0h2m1 0h1m3 0h1m6 0h2m2 0h1m3 0h1m3 0h5m1 0h1m2 0h1m1 0h1m1 0h1m1 0h1m4 0h1m1 0h2m3 0h2m2 0h2m4 0h2m3 0h2m2 0h2m1 0h4m1 0h2m1 0h3m2 0h2m1 0h3m-146 1h1m3 0h1m5 0h5m1 0h2m3 0h1m3 0h1m3 0h1m1 0h2m2 0h2m2 0h1m1 0h2m1 0h2m3 0h1m1 0h1m3 0h4m3 0h2m7 0h1m2 0h2m1 0h5m1 0h2m1 0h2m3 0h1m1 0h1m2 0h1m3 0h3m2 0h1m2 0h2m1 0h1m1 0h1m2 0h2m2 0h1m3 0h1m3 0h1m1 0h1m1 0h1m3 0h2m3 0h6m-149 1h2m1 0h1m3 0h2m1 0h1m1 0h4m3 0h2m1 0h2m1 0h1m2 0h3m3 0h1m5 0h2m1 0h1m3 0h1m2 0h3m1 0h1m1 0h1m3 0h3m1 0h2m3 0h2m2 0h1m3 0h3m2 0h1m1 0h1m1 0h5m1 0h4m1 0h3m1 0h1m2 0h1m3 0h3m2 0h4m2 0h2m3 0h1m1 0h1m1 0h1m3 0h1m3 0h1m1 0h1m1 0h2m2 0h1m-143 1h5m4 0h1m1 0h2m2 0h3m1 0h2m2 0h5m1 0h3m2 0h1m1 0h1m1 0h2m3 0h1m1 0h2m1 0h1m1 0h1m3 0h1m3 0h2m3 0h1m2 0h2m1 0h2m1 0h1m1 0h3m3 0h1m2 0h1m1 0h4m1 0h1m1 0h4m1 0h4m3 0h1m1 0h2m2 0h3m2 0h1m1 0h3m1 0h4m1 0h2m1 0h3m1 0h8m3 0h1m-147 1h2m1 0h3m6 0h1m2 0h6m2 0h2m1 0h1m3 0h3m2 0h3m2 0h3m1 0h6m1 0h1m2 0h2m1 0h1m3 0h1m4 0h1m1 0h2m2 0h1m3 0h3m1 0h5m1 0h4m1 0h1m1 0h1m1 0h1m4 0h1m1 0h2m1 0h4m2 0h2m3 0h3m3 0h2m1 0h1m1 0h1m1 0h2m3 0h2m1 0h1m1 0h1m2 0h2m1 0h3m-146 1h1m3 0h1m5 0h6m1 0h1m3 0h1m3 0h1m3 0h1m1 0h2m2 0h5m1 0h2m1 0h2m3 0h1m1 0h1m3 0h4m3 0h1m1 0h1m4 0h1m1 0h1m2 0h2m1 0h5m1 0h3m1 0h1m3 0h1m1 0h1m2 0h1m3 0h4m1 0h1m2 0h2m1 0h1m2 0h1m1 0h2m2 0h1m2 0h1m4 0h2m2 0h1m2 0h1m1 0h1m3 0h6m-149 1h3m4 0h1m2 0h1m1 0h4m3 0h2m1 0h1m2 0h1m2 0h3m8 0h3m1 0h1m3 0h1m2 0h3m1 0h1m1 0h1m3 0h3m1 0h3m2 0h5m5 0h1m2 0h1m1 0h1m1 0h1m1 0h3m1 0h4m1 0h3m1 0h1m2 0h1m3 0h3m2 0h2m4 0h2m3 0h2m2 0h1m2 0h2m3 0h2m2 0h2m2 0h1m-141 1h3m4 0h1m1 0h2m2 0h3m1 0h3m1 0h5m1 0h4m1 0h1m1 0h2m1 0h1m3 0h1m1 0h2m1 0h1m1 0h1m3 0h1m3 0h2m3 0h2m1 0h2m1 0h1m2 0h1m1 0h3m3 0h1m2 0h1m3 0h2m1 0h1m1 0h4m1 0h4m3 0h1m1 0h2m2 0h6m1 0h3m1 0h2m3 0h2m1 0h1m1 0h1m1 0h2m2 0h2m1 0h1m3 0h1m-147 1h2m2 0h2m1 0h2m3 0h1m2 0h2m2 0h2m3 0h1m1 0h1m3 0h3m1 0h4m2 0h3m1 0h6m1 0h1m2 0h2m1 0h1m3 0h1m6 0h2m2 0h1m3 0h1m3 0h5m1 0h1m2 0h1m1 0h1m1 0h1m1 0h1m2 0h1m1 0h1m1 0h2m1 0h4m2 0h2m4 0h2m3 0h2m1 0h3m1 0h3m2 0h2m1 0h3m2 0h2m1 0h3m-146 1h1m1 0h5m3 0h8m7 0h8m2 0h2m2 0h1m1 0h2m1 0h2m3 0h1m1 0h1m2 0h5m3 0h2m7 0h1m2 0h2m1 0h4m1 0h6m3 0h1m1 0h1m1 0h2m3 0h4m1 0h1m2 0h7m1 0h2m2 0h1m3 0h1m3 0h1m1 0h1m1 0h1m3 0h11m-149 1h2m1 0h2m3 0h1m1 0h1m1 0h4m2 0h3m1 0h2m1 0h1m2 0h1m3 0h1m1 0h1m5 0h2m1 0h1m3 0h1m2 0h3m1 0h1m1 0h1m3 0h3m1 0h2m3 0h2m2 0h1m4 0h2m2 0h1m1 0h1m3 0h3m1 0h4m1 0h1m1 0h1m1 0h1m2 0h1m3 0h3m1 0h1m3 0h1m2 0h2m3 0h1m1 0h1m1 0h1m3 0h1m3 0h1m1 0h1m1 0h1m3 0h1m-143 1h3m1 0h1m1 0h1m2 0h1m1 0h2m2 0h1m1 0h1m1 0h8m1 0h1m1 0h2m2 0h1m1 0h1m1 0h2m3 0h1m1 0h2m1 0h1m1 0h1m2 0h2m1 0h1m1 0h2m3 0h1m2 0h2m1 0h2m1 0h1m1 0h1m5 0h1m1 0h1m1 0h1m1 0h3m1 0h1m1 0h3m2 0h4m3 0h1m1 0h2m1 0h2m1 0h1m1 0h2m1 0h3m1 0h4m1 0h2m2 0h2m1 0h6m1 0h1m1 0h1m1 0h1m-147 1h2m1 0h2m3 0h1m3 0h1m2 0h2m2 0h2m3 0h1m1 0h1m1 0h1m3 0h1m2 0h3m2 0h3m1 0h6m1 0h1m2 0h1m1 0h1m3 0h2m4 0h1m1 0h2m2 0h1m3 0h1m3 0h5m3 0h2m1 0h1m1 0h1m1 0h1m2 0h1m1 0h1m1 0h2m1 0h4m2 0h2m3 0h3m3 0h2m1 0h1m1 0h1m1 0h3m2 0h2m1 0h1m2 0h1m3 0h4m-146 1h1m1 0h5m3 0h5m2 0h1m8 0h7m2 0h5m1 0h2m1 0h2m3 0h1m1 0h1m1 0h6m3 0h1m1 0h1m4 0h1m1 0h1m2 0h1m1 0h12m3 0h1m1 0h1m6 0h4m1 0h1m2 0h7m1 0h2m2 0h1m2 0h1m4 0h1m3 0h1m2 0h1m2 0h9m-149 1h3m7 0h1m1 0h4m1 0h4m1 0h2m1 0h1m2 0h1m2 0h1m7 0h3m1 0h1m3 0h1m2 0h3m1 0h1m2 0h6m1 0h3m2 0h2m2 0h1m5 0h1m2 0h2m1 0h2m1 0h3m1 0h4m1 0h3m1 0h1m2 0h1m3 0h3m2 0h1m1 0h1m3 0h2m3 0h2m2 0h1m2 0h2m3 0h2m3 0h4m-141 1h3m4 0h1m1 0h2m3 0h2m1 0h6m4 0h4m1 0h1m1 0h2m1 0h1m3 0h1m1 0h2m1 0h1m1 0h1m3 0h4m1 0h1m3 0h2m1 0h2m4 0h1m1 0h1m5 0h4m3 0h2m1 0h1m1 0h9m3 0h1m1 0h2m1 0h1m5 0h1m1 0h3m1 0h2m3 0h2m1 0h3m1 0h2m4 0h3m2 0h1m-147 1h2m2 0h2m6 0h1m2 0h6m3 0h1m1 0h4m1 0h2m1 0h4m2 0h3m1 0h6m1 0h1m2 0h3m3 0h2m6 0h2m1 0h1m4 0h1m3 0h6m1 0h3m1 0h1m1 0h1m1 0h1m1 0h2m1 0h1m1 0h2m1 0h4m2 0h4m2 0h2m3 0h2m1 0h3m1 0h2m3 0h2m1 0h4m1 0h1m2 0h3m-146 1h1m3 0h3m3 0h8m7 0h1m1 0h1m3 0h2m2 0h2m2 0h1m1 0h2m1 0h2m5 0h1m1 0h2m1 0h3m3 0h2m7 0h1m2 0h1m1 0h6m1 0h1m3 0h1m3 0h1m1 0h1m6 0h4m1 0h1m2 0h1m1 0h4m2 0h2m2 0h1m3 0h1m3 0h2m2 0h1m3 0h2m2 0h1m1 0h5m-149 1h2m1 0h1m6 0h1m1 0h4m1 0h1m1 0h2m1 0h2m1 0h1m2 0h1m2 0h1m2 0h1m5 0h2m1 0h1m3 0h1m2 0h1m3 0h1m2 0h6m1 0h2m3 0h2m1 0h2m5 0h1m2 0h1m1 0h4m1 0h2m1 0h4m3 0h1m1 0h1m2 0h1m3 0h3m2 0h1m2 0h1m2 0h2m3 0h1m1 0h1m1 0h1m2 0h2m3 0h1m1 0h1m4 0h2m-143 1h5m1 0h1m2 0h1m1 0h2m2 0h1m1 0h1m1 0h6m4 0h3m2 0h1m1 0h1m1 0h2m3 0h1m1 0h2m1 0h2m4 0h4m1 0h1m3 0h1m2 0h2m2 0h1m1 0h1m1 0h1m5 0h1m2 0h1m1 0h1m1 0h2m1 0h1m1 0h3m1 0h5m3 0h1m1 0h2m1 0h2m2 0h3m1 0h3m1 0h4m1 0h2m1 0h3m1 0h4m3 0h2m2 0h1m-147 1h2m1 0h3m6 0h1m2 0h2m2 0h2m3 0h1m1 0h4m1 0h2m2 0h3m2 0h3m1 0h5m1 0h1m3 0h3m3 0h2m4 0h1m1 0h2m6 0h1m3 0h6m3 0h1m1 0h1m1 0h1m1 0h1m1 0h2m1 0h1m1 0h2m1 0h4m2 0h1m1 0h6m3 0h2m1 0h1m1 0h1m1 0h2m3 0h2m1 0h1m1 0h4m2 0h3m-146 1h1m3 0h1m5 0h5m2 0h1m7 0h1m1 0h1m3 0h2m2 0h5m1 0h2m1 0h2m3 0h1m1 0h1m1 0h2m1 0h3m3 0h1m1 0h1m4 0h1m1 0h1m2 0h1m1 0h5m2 0h1m1 0h3m3 0h1m1 0h1m6 0h4m1 0h1m2 0h2m1 0h4m1 0h2m2 0h1m2 0h1m4 0h2m2 0h1m4 0h1m1 0h1m2 0h5m-149 1h3m7 0h1m1 0h4m1 0h4m1 0h2m1 0h1m2 0h1m2 0h1m1 0h2m4 0h3m1 0h1m3 0h1m2 0h1m1 0h1m1 0h1m2 0h6m1 0h3m2 0h2m2 0h1m5 0h1m2 0h2m1 0h2m1 0h3m1 0h4m1 0h3m1 0h1m2 0h1m3 0h6m1 0h1m3 0h2m3 0h2m2 0h1m2 0h2m3 0h1m1 0h1m2 0h6m-143 1h3m4 0h1m1 0h2m3 0h2m1 0h6m4 0h3m2 0h1m1 0h2m1 0h1m3 0h1m1 0h2m2 0h1m4 0h4m1 0h1m3 0h2m1 0h2m1 0h1m2 0h1m1 0h1m5 0h4m3 0h2m1 0h1m1 0h9m3 0h1m1 0h2m7 0h1m1 0h3m1 0h2m3 0h2m1 0h3m1 0h4m2 0h1m1 0h1m-144 1h2m2 0h2m6 0h1m2 0h6m3 0h1m1 0h4m1 0h2m2 0h3m2 0h3m1 0h5m1 0h1m3 0h3m3 0h2m6 0h2m1 0h2m3 0h1m3 0h6m1 0h3m1 0h1m1 0h1m1 0h1m1 0h2m1 0h1m1 0h2m1 0h4m2 0h4m2 0h2m3 0h2m1 0h3m1 0h2m3 0h2m1 0h1m1 0h2m6 0h1m-146 1h1m3 0h3m3 0h8m7 0h1m1 0h1m3 0h2m2 0h2m2 0h1m1 0h2m1 0h2m5 0h1m1 0h2m1 0h3m3 0h2m7 0h1m2 0h1m1 0h6m1 0h1m3 0h1m3 0h1m1 0h1m6 0h4m1 0h1m2 0h1m1 0h4m2 0h2m2 0h1m3 0h1m3 0h2m2 0h1m4 0h1m4 0h1m1 0h3m-149 1h2m8 0h1m1 0h4m1 0h1m1 0h2m1 0h2m1 0h1m2 0h1m2 0h1m1 0h2m5 0h2m1 0h1m3 0h1m2 0h1m3 0h1m2 0h6m1 0h2m3 0h2m2 0h1m5 0h1m2 0h1m1 0h4m1 0h2m1 0h4m3 0h1m1 0h1m2 0h1m3 0h1m4 0h1m2 0h1m2 0h2m3 0h1m1 0h1m1 0h1m2 0h2m3 0h1m1 0h1m4 0h4m-143 1h3m1 0h1m2 0h1m1 0h2m2 0h1m1 0h1m1 0h6m4 0h3m2 0h1m1 0h1m1 0h2m3 0h1m1 0h2m2 0h1m4 0h4m1 0h1m3 0h1m2 0h2m1 0h1m2 0h1m1 0h1m5 0h1m2 0h1m1 0h1m1 0h2m1 0h1m1 0h3m1 0h5m3 0h1m1 0h5m2 0h3m1 0h3m1 0h4m1 0h2m1 0h3m1 0h4m3 0h2m-144 1h3m1 0h2m6 0h1m2 0h2m2 0h2m3 0h1m1 0h4m1 0h2m2 0h3m2 0h3m1 0h5m1 0h1m3 0h3m3 0h2m4 0h1m1 0h2m1 0h2m3 0h1m3 0h6m3 0h1m1 0h1m1 0h1m1 0h1m1 0h2m1 0h1m1 0h2m1 0h4m2 0h1m1 0h6m3 0h2m1 0h1m1 0h1m1 0h2m3 0h2m1 0h1m1 0h4m2 0h1m1 0h1m-146 1h2m2 0h1m5 0h5m2 0h1m7 0h1m1 0h1m3 0h2m2 0h3m1 0h1m1 0h2m1 0h2m1 0h3m1 0h1m1 0h2m1 0h3m3 0h1m1 0h1m6 0h1m2 0h1m1 0h5m2 0h1m1 0h3m3 0h1m1 0h1m6 0h4m1 0h1m1 0h1m1 0h1m1 0h4m1 0h2m2 0h1m2 0h1m4 0h2m2 0h1m4 0h1m1 0h1m2 0h2m1 0h2m-149 1h3m7 0h1m1 0h4m1 0h4m1 0h2m1 0h1m2 0h1m2 0h1m1 0h2m4 0h1m1 0h1m1 0h1m3 0h1m1 0h2m1 0h1m1 0h1m2 0h6m1 0h3m2 0h2m2 0h1m5 0h1m2 0h2m1 0h2m1 0h3m1 0h4m1 0h2m2 0h1m2 0h1m3 0h1m2 0h3m1 0h1m3 0h2m3 0h2m2 0h1m2 0h2m3 0h1m1 0h1m2 0h4m2 0h1m-145 1h4m4 0h1m1 0h2m3 0h2m1 0h6m4 0h3m2 0h1m1 0h2m1 0h1m3 0h1m1 0h2m2 0h1m4 0h4m1 0h1m3 0h2m1 0h2m1 0h1m2 0h1m1 0h1m5 0h4m3 0h2m1 0h1m1 0h5m2 0h2m3 0h1m1 0h1m1 0h1m6 0h1m1 0h3m1 0h2m3 0h2m1 0h3m1 0h4m2 0h1m1 0h1m2 0h3m-149 1h2m2 0h2m1 0h2m3 0h1m2 0h6m3 0h1m1 0h4m1 0h2m2 0h3m2 0h3m1 0h7m3 0h3m3 0h2m6 0h2m1 0h2m3 0h1m3 0h6m1 0h3m1 0h1m1 0h1m1 0h1m1 0h3m2 0h2m1 0h10m2 0h2m3 0h2m1 0h3m1 0h2m3 0h2m1 0h1m1 0h2m4 0h2m1 0h1m-143 1h3m3 0h7m8 0h1m1 0h1m3 0h2m2 0h5m1 0h2m1 0h2m5 0h1m1 0h2m1 0h3m3 0h2m7 0h1m2 0h1m1 0h6m1 0h1m3 0h1m3 0h1m1 0h1m3 0h2m1 0h4m1 0h1m1 0h2m1 0h4m2 0h2m2 0h1m3 0h1m3 0h2m2 0h1m4 0h1m4 0h3m-147 1h2m8 0h1m1 0h4m1 0h1m2 0h1m1 0h2m1 0h1m2 0h1m2 0h1m1 0h2m4 0h3m1 0h1m3 0h1m2 0h1m3 0h1m2 0h6m1 0h1m4 0h2m2 0h1m5 0h1m1 0h2m1 0h3m1 0h3m1 0h4m5 0h1m2 0h1m3 0h3m2 0h1m2 0h1m2 0h2m3 0h1m1 0h1m1 0h1m2 0h2m3 0h1m1 0h1m4 0h4m-144 1h4m4 0h1m1 0h2m2 0h1m1 0h1m1 0h6m4 0h3m2 0h1m1 0h1m2 0h1m3 0h1m1 0h2m2 0h1m4 0h4m1 0h1m4 0h1m1 0h2m1 0h1m2 0h1m1 0h1m4 0h2m2 0h1m2 0h3m1 0h1m1 0h3m1 0h1m2 0h2m3 0h1m1 0h2m1 0h2m2 0h3m1 0h3m1 0h4m1 0h2m1 0h3m1 0h4m3 0h2m1 0h1m-146 1h2m1 0h3m1 0h2m3 0h1m2 0h2m3 0h1m3 0h1m1 0h4m1 0h2m2 0h3m1 0h4m1 0h5m1 0h1m3 0h3m3 0h2m4 0h1m1 0h2m1 0h2m3 0h1m3 0h6m2 0h2m1 0h1m1 0h1m1 0h1m1 0h3m2 0h2m1 0h4m2 0h1m1 0h6m3 0h2m1 0h1m1 0h1m1 0h2m3 0h2m1 0h1m1 0h4m4 0h1m-146 1h1m1 0h5m3 0h5m10 0h8m2 0h5m1 0h2m1 0h2m1 0h3m1 0h1m1 0h6m3 0h1m8 0h1m2 0h1m1 0h3m1 0h1m1 0h6m3 0h1m1 0h1m3 0h2m1 0h4m1 0h1m2 0h7m1 0h2m2 0h1m2 0h1m4 0h2m2 0h1m4 0h6m1 0h3m-149 1h3m1 0h1m3 0h1m1 0h1m1 0h4m1 0h3m2 0h2m1 0h1m2 0h1m3 0h3m4 0h3m1 0h1m3 0h1m1 0h2m1 0h1m1 0h3m3 0h3m1 0h1m4 0h2m2 0h1m5 0h1m1 0h1m1 0h2m3 0h3m1 0h4m1 0h2m2 0h1m2 0h1m3 0h1m3 0h1m3 0h1m2 0h2m3 0h2m5 0h2m3 0h1m1 0h1m1 0h1m3 0h1m2 0h1m-145 1h2m1 0h1m1 0h1m2 0h1m1 0h2m3 0h1m1 0h9m1 0h1m1 0h2m2 0h1m1 0h2m1 0h1m3 0h1m1 0h2m2 0h1m3 0h2m1 0h1m1 0h2m4 0h1m1 0h2m1 0h1m2 0h1m1 0h1m4 0h2m1 0h1m1 0h1m1 0h3m1 0h1m1 0h5m2 0h2m3 0h1m1 0h1m1 0h1m1 0h1m1 0h1m1 0h2m1 0h3m1 0h2m4 0h1m1 0h3m1 0h6m1 0h1m1 0h1m1 0h3m-149 1h2m1 0h2m3 0h1m3 0h1m2 0h4m1 0h1m3 0h1m1 0h1m1 0h1m3 0h1m2 0h3m1 0h4m1 0h7m3 0h3m3 0h2m4 0h1m1 0h2m1 0h2m3 0h1m3 0h3m1 0h1m3 0h2m1 0h1m1 0h1m1 0h1m1 0h3m2 0h2m1 0h6m1 0h1m3 0h3m3 0h2m1 0h2m1 0h3m3 0h2m1 0h1m1 0h2m3 0h3m1 0h1m-147 1h1m1 0h5m3 0h7m8 0h8m2 0h5m1 0h2m1 0h2m5 0h1m1 0h6m3 0h1m8 0h1m2 0h1m1 0h4m2 0h6m3 0h1m1 0h1m3 0h2m1 0h4m1 0h1m1 0h8m1 0h2m2 0h1m3 0h3m1 0h2m2 0h1m4 0h8m-147 1h3m4 0h2m1 0h1m1 0h4m1 0h1m2 0h1m1 0h2m1 0h1m1 0h1m1 0h1m3 0h2m4 0h3m1 0h1m3 0h1m2 0h1m3 0h1m3 0h5m1 0h1m4 0h2m2 0h1m5 0h1m1 0h1m1 0h3m1 0h4m1 0h4m5 0h1m2 0h1m3 0h4m1 0h4m2 0h2m3 0h1m1 0h3m2 0h2m3 0h1m1 0h2m1 0h1m2 0h3m-144 1h6m2 0h1m1 0h2m2 0h1m1 0h1m1 0h7m1 0h2m1 0h2m2 0h1m2 0h1m1 0h1m3 0h1m1 0h2m2 0h1m3 0h1m5 0h1m4 0h1m1 0h2m1 0h1m2 0h1m1 0h1m5 0h1m1 0h1m2 0h1m1 0h2m1 0h1m1 0h3m1 0h1m2 0h2m3 0h1m1 0h2m1 0h2m1 0h1m1 0h2m1 0h3m1 0h4m1 0h2m1 0h3m1 0h5m5 0h1m-146 1h2m1 0h3m2 0h1m3 0h1m2 0h2m3 0h1m3 0h1m1 0h3m2 0h2m2 0h8m1 0h5m1 0h1m3 0h1m1 0h4m1 0h1m4 0h1m1 0h2m1 0h2m3 0h1m3 0h1m1 0h1m2 0h1m2 0h2m1 0h1m1 0h1m1 0h1m1 0h3m2 0h2m1 0h4m3 0h1m4 0h2m3 0h2m1 0h1m1 0h1m1 0h2m3 0h2m1 0h1m1 0h3m1 0h1m3 0h1m-146 1h1m3 0h2m4 0h5m10 0h2m1 0h1m2 0h2m2 0h1m1 0h3m1 0h2m1 0h2m1 0h3m1 0h1m2 0h4m4 0h1m8 0h1m2 0h1m1 0h3m1 0h1m3 0h4m3 0h1m1 0h1m3 0h2m1 0h4m1 0h1m2 0h1m4 0h2m1 0h2m2 0h1m7 0h2m2 0h1m5 0h5m1 0h3m-149 1h3m4 0h2m1 0h1m1 0h4m1 0h3m2 0h2m1 0h1m1 0h1m1 0h1m3 0h2m3 0h4m1 0h1m3 0h1m1 0h2m1 0h1m1 0h1m3 0h5m1 0h1m3 0h3m2 0h1m5 0h1m1 0h1m2 0h2m3 0h2m1 0h4m1 0h2m2 0h1m2 0h1m3 0h1m4 0h3m3 0h2m3 0h1m1 0h1m4 0h2m3 0h1m1 0h2m4 0h1m2 0h1m-145 1h6m2 0h1m1 0h2m2 0h2m1 0h8m1 0h2m1 0h2m2 0h2m1 0h1m1 0h1m3 0h1m1 0h2m2 0h1m3 0h1m5 0h1m4 0h4m1 0h1m2 0h1m1 0h1m5 0h1m4 0h1m1 0h2m1 0h1m1 0h5m2 0h2m3 0h1m1 0h1m1 0h1m3 0h2m1 0h1m1 0h3m1 0h4m2 0h1m1 0h3m1 0h5m1 0h2m3 0h3m-149 1h2m1 0h3m1 0h2m3 0h1m2 0h2m1 0h1m1 0h1m3 0h1m1 0h3m2 0h2m2 0h3m1 0h4m1 0h7m3 0h1m1 0h4m1 0h1m4 0h2m1 0h1m1 0h2m3 0h1m3 0h1m1 0h1m1 0h2m2 0h2m1 0h1m1 0h1m1 0h1m1 0h3m2 0h2m1 0h7m3 0h4m3 0h2m1 0h1m2 0h3m3 0h2m1 0h1m1 0h2m1 0h2m1 0h2m1 0h1m-147 1h1m3 0h2m4 0h7m8 0h2m1 0h1m2 0h2m2 0h1m1 0h3m1 0h2m1 0h2m5 0h1m2 0h4m4 0h1m2 0h2m4 0h1m2 0h1m1 0h4m1 0h1m2 0h4m3 0h1m1 0h1m3 0h2m1 0h4m1 0h1m1 0h4m5 0h2m2 0h1m4 0h2m1 0h2m2 0h1m5 0h1m2 0h4m-147 1h3m4 0h2m1 0h1m1 0h4m1 0h1m2 0h1m1 0h2m1 0h1m1 0h1m1 0h1m3 0h2m2 0h1m1 0h3m1 0h1m3 0h1m2 0h1m3 0h1m3 0h5m1 0h1m2 0h4m2 0h1m5 0h1m1 0h5m3 0h2m1 0h4m5 0h1m2 0h1m3 0h4m1 0h3m3 0h2m3 0h1m1 0h3m2 0h2m3 0h1m1 0h2m1 0h1m2 0h3m-144 1h6m2 0h1m1 0h2m2 0h1m1 0h1m1 0h7m1 0h2m1 0h2m2 0h1m1 0h2m1 0h1m3 0h1m1 0h2m2 0h1m3 0h1m5 0h1m4 0h1m1 0h2m1 0h1m2 0h1m1 0h1m5 0h2m3 0h1m1 0h2m1 0h1m1 0h3m4 0h2m3 0h1m1 0h2m1 0h2m1 0h1m2 0h1m1 0h3m1 0h4m1 0h2m1 0h3m1 0h5m5 0h1m-146 1h2m1 0h3m1 0h2m3 0h1m2 0h2m1 0h1m1 0h1m3 0h1m1 0h3m2 0h2m2 0h8m1 0h5m1 0h1m3 0h1m1 0h4m1 0h1m4 0h4m1 0h2m3 0h1m3 0h1m1 0h4m2 0h2m1 0h1m1 0h1m1 0h1m2 0h2m2 0h2m1 0h4m3 0h1m4 0h2m3 0h2m1 0h1m1 0h1m1 0h2m3 0h2m1 0h1m1 0h3m1 0h1m3 0h1m-146 1h1m3 0h2m4 0h7m8 0h2m1 0h1m2 0h2m4 0h3m1 0h2m1 0h2m1 0h3m1 0h1m2 0h4m4 0h1m8 0h1m2 0h1m1 0h3m1 0h2m2 0h4m3 0h1m1 0h1m3 0h2m1 0h4m1 0h1m2 0h1m4 0h1m2 0h2m2 0h1m7 0h2m2 0h1m5 0h5m1 0h3m-149 1h3m4 0h2m1 0h1m1 0h4m1 0h1m1 0h1m2 0h2m1 0h1m1 0h1m1 0h1m3 0h2m2 0h1m1 0h3m1 0h1m3 0h1m1 0h2m1 0h1m1 0h1m3 0h5m1 0h1m3 0h3m2 0h1m5 0h1m1 0h1m1 0h1m1 0h1m3 0h2m1 0h4m5 0h1m2 0h1m3 0h1m4 0h4m2 0h2m3 0h1m1 0h1m4 0h2m3 0h1m1 0h2m4 0h1m2 0h1m-145 1h6m2 0h1m1 0h2m2 0h1m2 0h8m1 0h2m1 0h2m2 0h2m1 0h1m1 0h1m3 0h1m1 0h2m2 0h2m2 0h1m5 0h1m4 0h4m1 0h1m2 0h1m1 0h1m5 0h2m3 0h1m1 0h2m1 0h1m1 0h3m4 0h2m3 0h1m1 0h1m1 0h1m3 0h1m1 0h2m1 0h3m1 0h4m2 0h1m1 0h3m1 0h5m1 0h2m3 0h3m-149 1h2m1 0h3m1 0h2m3 0h1m2 0h2m1 0h1m1 0h1m3 0h1m1 0h3m2 0h2m2 0h2m2 0h4m1 0h9m1 0h1m1 0h4m1 0h1m4 0h2m1 0h1m1 0h2m3 0h1m3 0h1m1 0h2m1 0h1m2 0h2m1 0h1m1 0h1m1 0h1m2 0h2m2 0h2m1 0h7m5 0h2m3 0h2m1 0h1m2 0h3m3 0h2m1 0h1m1 0h2m1 0h2m1 0h2m1 0h1m-147 1h1m3 0h2m4 0h7m8 0h2m1 0h1m2 0h2m2 0h5m1 0h2m1 0h2m3 0h3m2 0h4m4 0h1m2 0h2m4 0h1m2 0h1m1 0h4m1 0h2m1 0h4m3 0h1m1 0h1m3 0h2m1 0h4m1 0h1m1 0h4m2 0h1m2 0h2m2 0h1m4 0h2m1 0h2m2 0h1m5 0h1m2 0h4m-147 1h3m4 0h2m1 0h1m1 0h4m1 0h1m2 0h1m1 0h2m1 0h1m1 0h1m1 0h1m3 0h2m3 0h4m1 0h1m3 0h1m2 0h1m3 0h1m3 0h5m1 0h1m2 0h4m2 0h1m5 0h1m1 0h3m1 0h1m3 0h2m1 0h4m5 0h1m2 0h1m3 0h4m1 0h4m2 0h2m3 0h1m1 0h3m2 0h2m3 0h1m1 0h2m1 0h1m2 0h3m-144 1h6m2 0h1m1 0h2m2 0h1m1 0h1m1 0h7m1 0h2m1 0h2m2 0h1m1 0h2m1 0h1m3 0h1m1 0h2m2 0h1m3 0h1m5 0h1m4 0h1m1 0h2m1 0h1m2 0h1m1 0h1m5 0h3m2 0h1m1 0h2m1 0h1m1 0h3m4 0h2m3 0h1m1 0h2m1 0h2m1 0h1m1 0h2m1 0h3m1 0h4m1 0h2m1 0h3m1 0h5m5 0h1m-146 1h2m1 0h3m1 0h2m3 0h1m2 0h2m1 0h1m1 0h1m3 0h1m1 0h3m2 0h2m2 0h8m1 0h5m1 0h2m2 0h1m1 0h4m1 0h1m4 0h4m1 0h2m3 0h1m3 0h1m1 0h2m1 0h1m2 0h2m1 0h1m1 0h1m1 0h1m2 0h2m2 0h2m1 0h4m3 0h1m4 0h2m3 0h2m1 0h1m1 0h1m1 0h2m3 0h2m1 0h1m1 0h3m1 0h1m3 0h1m-148 1h1m1 0h1m3 0h2m4 0h7m8 0h2m1 0h1m2 0h2m4 0h3m1 0h2m1 0h2m1 0h2m2 0h1m2 0h4m4 0h1m8 0h1m2 0h1m1 0h3m1 0h1m1 0h1m1 0h4m3 0h1m1 0h1m3 0h2m1 0h4m1 0h1m2 0h1m4 0h1m2 0h2m2 0h1m7 0h2m2 0h1m5 0h5m1 0h3m-149 1h3m4 0h2m1 0h1m1 0h4m1 0h1m1 0h1m2 0h2m1 0h1m1 0h1m1 0h1m3 0h3m1 0h1m1 0h3m1 0h1m3 0h1m1 0h4m1 0h1m3 0h5m1 0h1m3 0h2m3 0h1m5 0h1m1 0h1m1 0h1m1 0h1m3 0h2m1 0h4m5 0h1m2 0h1m3 0h1m3 0h5m2 0h2m3 0h1m1 0h1m4 0h2m3 0h1m1 0h2m4 0h1m2 0h1m-146 1h3m1 0h3m2 0h1m1 0h2m2 0h1m2 0h8m1 0h2m1 0h2m2 0h2m1 0h1m1 0h1m3 0h1m1 0h2m1 0h1m4 0h1m5 0h1m4 0h6m2 0h1m1 0h1m5 0h3m2 0h1m1 0h2m1 0h1m1 0h3m4 0h2m3 0h1m1 0h1m1 0h1m1 0h1m1 0h1m1 0h2m1 0h3m1 0h4m2 0h1m1 0h3m1 0h5m6 0h3m-148 1h3m3 0h2m3 0h1m2 0h2m1 0h1m1 0h1m3 0h1m1 0h3m2 0h2m2 0h2m2 0h4m1 0h5m1 0h1m1 0h1m1 0h1m1 0h4m1 0h1m4 0h2m1 0h1m1 0h2m3 0h1m3 0h1m1 0h2m1 0h1m2 0h2m1 0h1m1 0h1m1 0h1m2 0h2m2 0h2m1 0h8m4 0h2m3 0h2m1 0h1m2 0h3m3 0h2m1 0h1m1 0h3m1 0h1m1 0h2m1 0h1m-148 1h1m3 0h3m4 0h7m8 0h15m1 0h2m1 0h2m5 0h1m2 0h5m3 0h1m2 0h2m4 0h1m2 0h1m1 0h4m2 0h6m3 0h1m1 0h1m3 0h2m1 0h4m1 0h1m1 0h8m1 0h2m2 0h1m4 0h2m1 0h2m2 0h1m5 0h7m-139 1h1m1 0h1m1 0h4m1 0h1m2 0h1m1 0h2m1 0h1m1 0h2m3 0h3m1 0h1m1 0h4m1 0h1m3 0h1m3 0h2m1 0h3m3 0h3m1 0h1m2 0h2m4 0h1m5 0h1m1 0h2m1 0h1m3 0h3m1 0h4m5 0h1m2 0h1m3 0h3m1 0h1m3 0h1m2 0h2m3 0h1m1 0h4m1 0h2m3 0h1m1 0h3m3 0h4m-148 1h7m1 0h1m2 0h1m1 0h2m2 0h1m1 0h1m1 0h6m1 0h1m1 0h1m1 0h2m1 0h1m2 0h2m1 0h1m3 0h1m1 0h2m1 0h1m4 0h2m1 0h1m1 0h2m4 0h1m1 0h1m1 0h2m2 0h1m1 0h1m5 0h1m1 0h1m1 0h1m1 0h3m1 0h1m1 0h3m4 0h2m3 0h1m1 0h2m1 0h2m1 0h1m1 0h2m1 0h3m1 0h4m1 0h2m1 0h3m1 0h4m1 0h1m1 0h1m1 0h2m2 0h1m-149 1h1m5 0h1m1 0h1m3 0h1m2 0h2m1 0h1m5 0h1m1 0h3m3 0h1m4 0h6m1 0h5m1 0h1m1 0h1m1 0h3m3 0h2m4 0h3m2 0h2m3 0h1m3 0h1m1 0h1m1 0h1m3 0h2m1 0h1m1 0h1m1 0h1m2 0h2m2 0h2m1 0h4m2 0h2m3 0h3m3 0h2m1 0h1m1 0h1m6 0h2m1 0h1m1 0h2m3 0h1m2 0h1m-148 1h1m1 0h3m1 0h1m1 0h1m3 0h9m7 0h7m4 0h3m1 0h2m1 0h2m5 0h1m2 0h5m3 0h1m4 0h1m3 0h1m2 0h1m1 0h3m1 0h1m1 0h6m3 0h1m1 0h1m3 0h2m1 0h4m1 0h1m2 0h7m1 0h2m2 0h1m6 0h1m1 0h1m2 0h1m5 0h5m1 0h1m-147 1h1m1 0h3m1 0h1m3 0h1m1 0h4m1 0h1m2 0h1m1 0h2m1 0h1m1 0h1m2 0h1m2 0h3m1 0h1m1 0h3m1 0h1m3 0h1m3 0h2m1 0h6m1 0h2m1 0h1m3 0h3m2 0h1m5 0h1m1 0h1m1 0h2m1 0h5m1 0h4m5 0h1m2 0h1m3 0h1m2 0h1m3 0h1m3 0h2m3 0h1m1 0h1m2 0h4m3 0h1m1 0h2m1 0h6m-147 1h1m1 0h3m1 0h1m4 0h1m1 0h2m2 0h1m1 0h1m1 0h7m2 0h4m2 0h2m1 0h1m1 0h1m3 0h1m1 0h2m1 0h1m4 0h3m3 0h1m4 0h3m2 0h1m2 0h1m1 0h1m2 0h1m2 0h2m2 0h5m1 0h1m1 0h3m4 0h2m3 0h1m1 0h1m1 0h1m6 0h1m1 0h3m1 0h4m3 0h4m1 0h9m1 0h1m1 0h2m-149 1h1m5 0h1m5 0h1m2 0h2m1 0h1m2 0h2m1 0h1m1 0h1m2 0h2m1 0h1m2 0h2m2 0h4m1 0h5m1 0h1m1 0h1m1 0h1m1 0h1m4 0h1m4 0h2m1 0h1m1 0h2m3 0h1m2 0h1m2 0h3m2 0h1m1 0h1m1 0h1m1 0h1m1 0h1m2 0h2m2 0h2m1 0h6m1 0h1m1 0h1m1 0h3m3 0h2m1 0h1m2 0h2m4 0h2m1 0h1m9 0h2m-149 1h7m5 0h7m1 0h2m7 0h2m2 0h9m1 0h2m1 0h2m5 0h1m6 0h1m3 0h1m2 0h2m4 0h1m2 0h1m1 0h1m2 0h1m1 0h2m1 0h2m1 0h1m3 0h1m1 0h1m3 0h2m1 0h4m1 0h1m1 0h2m1 0h5m1 0h2m2 0h1m4 0h2m2 0h1m2 0h1m7 0h1m1 0h1m1 0h2"/></svg>
